<svg xmlns="http://www.w3.org/2000/svg" xmlns:xlink="http://www.w3.org/1999/xlink" width="500" zoomAndPan="magnify" viewBox="0 0 375 374.999991" height="500" preserveAspectRatio="xMidYMid meet" version="1.0"><defs><g/><clipPath id="bb0e54b116"><path d="M 278 7 L 333.960938 7 L 333.960938 66 L 278 66 Z M 278 7 " clip-rule="nonzero"/></clipPath><clipPath id="a446c41f04"><rect x="0" width="334" y="0" height="86"/></clipPath><clipPath id="504d664e5b"><rect x="0" width="103" y="0" height="34"/></clipPath></defs><g transform="matrix(1, 0, 0, 1, 21, 139)"><g clip-path="url(#a446c41f04)"><g fill="#a59c90" fill-opacity="1"><g transform="translate(0.559703, 65.659284)"><g><path d="M 23.359375 0.8125 C 19.046875 0.8125 15.164062 0.1875 11.71875 -1.0625 C 8.28125 -2.320312 5.601562 -3.632812 3.6875 -5 L 3.28125 -16.390625 L 4.1875 -16.5625 C 5.269531 -13.71875 6.695312 -11.078125 8.46875 -8.640625 C 10.25 -6.210938 12.503906 -4.273438 15.234375 -2.828125 C 17.972656 -1.378906 21.226562 -0.65625 25 -0.65625 C 27.1875 -0.65625 29.207031 -1.101562 31.0625 -2 C 32.925781 -2.90625 34.414062 -4.175781 35.53125 -5.8125 C 36.65625 -7.457031 37.21875 -9.375 37.21875 -11.5625 C 37.21875 -13.632812 36.671875 -15.4375 35.578125 -16.96875 C 34.484375 -18.5 33.0625 -19.835938 31.3125 -20.984375 C 29.5625 -22.128906 27.71875 -23.125 25.78125 -23.96875 C 23.84375 -24.820312 22 -25.601562 20.25 -26.3125 C 17.019531 -27.625 14.21875 -28.945312 11.84375 -30.28125 C 9.46875 -31.625 7.632812 -33.238281 6.34375 -35.125 C 5.0625 -37.007812 4.421875 -39.398438 4.421875 -42.296875 C 4.421875 -45.515625 5.253906 -48.285156 6.921875 -50.609375 C 8.585938 -52.929688 10.921875 -54.734375 13.921875 -56.015625 C 16.929688 -57.304688 20.429688 -57.953125 24.421875 -57.953125 C 28.140625 -57.953125 31.335938 -57.539062 34.015625 -56.71875 C 36.691406 -55.90625 38.820312 -55.0625 40.40625 -54.1875 L 40.734375 -44.671875 L 39.921875 -44.421875 C 38.390625 -47.972656 36.160156 -50.894531 33.234375 -53.1875 C 30.316406 -55.488281 26.503906 -56.640625 21.796875 -56.640625 C 19.617188 -56.640625 17.585938 -56.210938 15.703125 -55.359375 C 13.816406 -54.515625 12.3125 -53.300781 11.1875 -51.71875 C 10.070312 -50.132812 9.515625 -48.171875 9.515625 -45.828125 C 9.515625 -43.910156 9.976562 -42.238281 10.90625 -40.8125 C 11.832031 -39.394531 13.0625 -38.164062 14.59375 -37.125 C 16.125 -36.09375 17.789062 -35.179688 19.59375 -34.390625 C 21.394531 -33.597656 23.171875 -32.84375 24.921875 -32.125 C 27.984375 -30.925781 30.851562 -29.644531 33.53125 -28.28125 C 36.207031 -26.914062 38.378906 -25.25 40.046875 -23.28125 C 41.710938 -21.3125 42.546875 -18.769531 42.546875 -15.65625 C 42.546875 -12.269531 41.613281 -9.332031 39.75 -6.84375 C 37.894531 -4.351562 35.503906 -2.453125 32.578125 -1.140625 C 29.660156 0.160156 26.585938 0.8125 23.359375 0.8125 Z M 23.359375 0.8125 "/></g></g></g><g fill="#a59c90" fill-opacity="1"><g transform="translate(45.719397, 65.659284)"><g><path d="M 4.1875 0 L 4.1875 -1.0625 C 5.4375 -1.445312 6.289062 -2.265625 6.75 -3.515625 C 7.21875 -4.773438 7.453125 -7.070312 7.453125 -10.40625 L 7.453125 -46.96875 C 7.453125 -50.351562 7.21875 -52.660156 6.75 -53.890625 C 6.289062 -55.117188 5.4375 -55.925781 4.1875 -56.3125 L 4.1875 -57.375 L 17.453125 -57.375 L 17.453125 -56.3125 C 16.203125 -55.925781 15.34375 -55.117188 14.875 -53.890625 C 14.414062 -52.660156 14.1875 -50.351562 14.1875 -46.96875 L 14.1875 -26.140625 L 35.65625 -48.109375 C 38.226562 -50.785156 39.71875 -52.820312 40.125 -54.21875 C 40.53125 -55.613281 39.941406 -56.421875 38.359375 -56.640625 L 38.359375 -57.375 L 49.75 -57.375 L 49.75 -56.3125 C 48.4375 -55.925781 46.90625 -55.363281 45.15625 -54.625 C 43.414062 -53.894531 41.367188 -52.328125 39.015625 -49.921875 L 21.5625 -32.046875 L 23.4375 -32.125 C 26.5 -32.34375 29 -32.191406 30.9375 -31.671875 C 32.882812 -31.160156 34.5 -30.21875 35.78125 -28.84375 C 37.0625 -27.476562 38.257812 -25.617188 39.375 -23.265625 C 40.5 -20.921875 41.742188 -18.003906 43.109375 -14.515625 C 44.535156 -11.015625 45.710938 -8.289062 46.640625 -6.34375 C 47.566406 -4.40625 48.425781 -3.050781 49.21875 -2.28125 C 50.007812 -1.519531 50.84375 -1.140625 51.71875 -1.140625 C 51.988281 -1.140625 52.234375 -1.140625 52.453125 -1.140625 C 52.671875 -1.140625 52.890625 -1.171875 53.109375 -1.234375 L 53.109375 -0.15625 C 52.398438 0.0507812 51.625 0.195312 50.78125 0.28125 C 49.9375 0.363281 49.078125 0.40625 48.203125 0.40625 C 46.234375 0.40625 44.644531 -0.015625 43.4375 -0.859375 C 42.238281 -1.703125 41.160156 -3.09375 40.203125 -5.03125 C 39.242188 -6.976562 38.109375 -9.535156 36.796875 -12.703125 C 35.429688 -16.035156 34.269531 -18.863281 33.3125 -21.1875 C 32.363281 -23.507812 31.394531 -25.378906 30.40625 -26.796875 C 29.425781 -28.222656 28.28125 -29.25 26.96875 -29.875 C 25.65625 -30.5 23.960938 -30.785156 21.890625 -30.734375 L 20.25 -30.734375 L 14.1875 -24.515625 L 14.1875 -10.40625 C 14.1875 -7.070312 14.414062 -4.773438 14.875 -3.515625 C 15.34375 -2.265625 16.203125 -1.445312 17.453125 -1.0625 L 17.453125 0 Z M 4.1875 0 "/></g></g></g><g fill="#a59c90" fill-opacity="1"><g transform="translate(98.17348, 65.659284)"><g><path d="M 4.1875 0 L 4.1875 -1.0625 C 5.4375 -1.445312 6.289062 -2.265625 6.75 -3.515625 C 7.21875 -4.773438 7.453125 -7.070312 7.453125 -10.40625 L 7.453125 -46.96875 C 7.453125 -50.351562 7.21875 -52.660156 6.75 -53.890625 C 6.289062 -55.117188 5.4375 -55.925781 4.1875 -56.3125 L 4.1875 -57.375 L 17.453125 -57.375 L 17.453125 -56.3125 C 16.203125 -55.925781 15.34375 -55.117188 14.875 -53.890625 C 14.414062 -52.660156 14.1875 -50.351562 14.1875 -46.96875 L 14.1875 -10.40625 C 14.1875 -7.070312 14.414062 -4.773438 14.875 -3.515625 C 15.34375 -2.265625 16.203125 -1.445312 17.453125 -1.0625 L 17.453125 0 Z M 4.1875 0 "/></g></g></g><g fill="#a59c90" fill-opacity="1"><g transform="translate(119.810791, 65.659284)"><g><path d="M 47.453125 0.65625 L 8.859375 -49.59375 L 8.859375 -13.6875 C 8.859375 -10.570312 9.078125 -8.164062 9.515625 -6.46875 C 9.953125 -4.78125 10.59375 -3.539062 11.4375 -2.75 C 12.28125 -1.957031 13.304688 -1.394531 14.515625 -1.0625 L 14.515625 0 L 4.265625 0 L 4.265625 -1.0625 C 5.515625 -1.445312 6.375 -2.265625 6.84375 -3.515625 C 7.3125 -4.773438 7.546875 -7.070312 7.546875 -10.40625 L 7.546875 -46.96875 C 7.546875 -50.351562 7.242188 -52.660156 6.640625 -53.890625 C 6.035156 -55.117188 4.914062 -55.925781 3.28125 -56.3125 L 3.28125 -57.375 L 11.3125 -57.375 L 47.125 -10.984375 L 47.125 -43.6875 C 47.125 -46.800781 46.90625 -49.21875 46.46875 -50.9375 C 46.039062 -52.664062 45.414062 -53.910156 44.59375 -54.671875 C 43.769531 -55.441406 42.726562 -55.988281 41.46875 -56.3125 L 41.46875 -57.375 L 51.796875 -57.375 L 51.796875 -56.3125 C 50.546875 -55.925781 49.6875 -55.117188 49.21875 -53.890625 C 48.757812 -52.660156 48.53125 -50.351562 48.53125 -46.96875 L 48.53125 0.65625 Z M 47.453125 0.65625 "/></g></g></g><g fill="#a59c90" fill-opacity="1"><g transform="translate(174.887585, 65.659284)"><g><path d="M 33.4375 0.8125 C 29.945312 0.8125 26.476562 0.226562 23.03125 -0.9375 C 19.59375 -2.113281 16.453125 -3.914062 13.609375 -6.34375 C 10.765625 -8.78125 8.492188 -11.851562 6.796875 -15.5625 C 5.109375 -19.28125 4.265625 -23.679688 4.265625 -28.765625 C 4.265625 -34.398438 5.492188 -39.414062 7.953125 -43.8125 C 10.410156 -48.207031 13.820312 -51.675781 18.1875 -54.21875 C 22.5625 -56.757812 27.644531 -58.03125 33.4375 -58.03125 C 36.882812 -58.03125 40.328125 -57.425781 43.765625 -56.21875 C 47.210938 -55.019531 50.34375 -53.203125 53.15625 -50.765625 C 55.96875 -48.335938 58.21875 -45.265625 59.90625 -41.546875 C 61.601562 -37.835938 62.453125 -33.46875 62.453125 -28.4375 C 62.453125 -23.351562 61.601562 -18.984375 59.90625 -15.328125 C 58.21875 -11.671875 55.953125 -8.640625 53.109375 -6.234375 C 50.273438 -3.828125 47.148438 -2.050781 43.734375 -0.90625 C 40.316406 0.238281 36.882812 0.8125 33.4375 0.8125 Z M 10.8125 -33.53125 C 10.976562 -29.425781 11.726562 -25.445312 13.0625 -21.59375 C 14.40625 -17.738281 16.238281 -14.28125 18.5625 -11.21875 C 20.882812 -8.164062 23.601562 -5.738281 26.71875 -3.9375 C 29.832031 -2.132812 33.222656 -1.234375 36.890625 -1.234375 C 41.253906 -1.234375 44.882812 -2.1875 47.78125 -4.09375 C 50.675781 -6.007812 52.820312 -8.617188 54.21875 -11.921875 C 55.613281 -15.234375 56.226562 -18.9375 56.0625 -23.03125 C 55.90625 -27.289062 55.15625 -31.398438 53.8125 -35.359375 C 52.46875 -39.328125 50.648438 -42.867188 48.359375 -45.984375 C 46.066406 -49.097656 43.363281 -51.570312 40.25 -53.40625 C 37.132812 -55.238281 33.742188 -56.15625 30.078125 -56.15625 C 25.929688 -56.15625 22.394531 -55.195312 19.46875 -53.28125 C 16.539062 -51.363281 14.328125 -48.710938 12.828125 -45.328125 C 11.328125 -41.941406 10.65625 -38.007812 10.8125 -33.53125 Z M 10.8125 -33.53125 "/></g></g></g><g fill="#a59c90" fill-opacity="1"><g transform="translate(236.766679, 65.659284)"><g><path d="M 5.8125 -47.703125 C 4.613281 -50.816406 3.507812 -52.929688 2.5 -54.046875 C 1.488281 -55.171875 0.546875 -55.925781 -0.328125 -56.3125 L -0.328125 -57.375 L 12.453125 -57.375 L 12.453125 -56.3125 C 11.253906 -55.925781 10.75 -55.171875 10.9375 -54.046875 C 11.132812 -52.929688 11.832031 -50.816406 13.03125 -47.703125 L 28.859375 -7.125 L 44.421875 -47.625 C 45.460938 -50.351562 45.898438 -52.414062 45.734375 -53.8125 C 45.578125 -55.207031 44.785156 -56.039062 43.359375 -56.3125 L 43.359375 -57.375 L 52.546875 -57.375 L 52.546875 -56.3125 C 51.453125 -55.925781 50.367188 -55.171875 49.296875 -54.046875 C 48.234375 -52.929688 47.101562 -50.816406 45.90625 -47.703125 L 27.296875 0.40625 L 25 0.40625 Z M 5.8125 -47.703125 "/></g></g></g><g clip-path="url(#bb0e54b116)"><g fill="#a59c90" fill-opacity="1"><g transform="translate(279.876751, 65.659284)"><g><path d="M -1.390625 0 L -1.390625 -1.0625 C -0.242188 -1.445312 0.875 -2.195312 1.96875 -3.3125 C 3.0625 -4.4375 4.234375 -6.554688 5.484375 -9.671875 L 21.640625 -49.671875 C 22.128906 -50.984375 22.070312 -52.269531 21.46875 -53.53125 L 20.734375 -55.25 L 26.890625 -58.03125 L 47.046875 -9.59375 C 48.304688 -6.53125 49.441406 -4.4375 50.453125 -3.3125 C 51.460938 -2.195312 52.40625 -1.445312 53.28125 -1.0625 L 53.28125 0 L 40.578125 0 L 40.578125 -1.0625 C 41.828125 -1.445312 42.34375 -2.195312 42.125 -3.3125 C 41.90625 -4.4375 41.144531 -6.53125 39.84375 -9.59375 L 34.84375 -21.640625 L 11.71875 -21.640625 L 6.890625 -9.671875 C 4.804688 -4.484375 5.132812 -1.613281 7.875 -1.0625 L 7.875 0 Z M 12.21875 -22.875 L 34.34375 -22.875 L 23.109375 -49.84375 Z M 12.21875 -22.875 "/></g></g></g></g></g></g><g transform="matrix(1, 0, 0, 1, 136, 220)"><g clip-path="url(#504d664e5b)"><g fill="#a59c90" fill-opacity="1"><g transform="translate(0.376246, 25.55035)"><g><path d="M 13.5625 0.3125 C 11.144531 0.3125 9.039062 -0.117188 7.25 -0.984375 C 5.46875 -1.847656 4.085938 -3.09375 3.109375 -4.71875 C 2.128906 -6.351562 1.640625 -8.320312 1.640625 -10.625 C 1.640625 -12.3125 1.945312 -13.863281 2.5625 -15.28125 C 3.175781 -16.707031 4.046875 -17.953125 5.171875 -19.015625 C 6.296875 -20.085938 7.632812 -20.910156 9.1875 -21.484375 C 10.738281 -22.066406 12.441406 -22.359375 14.296875 -22.359375 C 15.203125 -22.359375 16.125 -22.28125 17.0625 -22.125 C 18 -21.96875 18.859375 -21.769531 19.640625 -21.53125 C 20.421875 -21.300781 21.007812 -21.050781 21.40625 -20.78125 L 21.53125 -17.015625 L 21.21875 -16.953125 C 20.601562 -18.378906 19.582031 -19.535156 18.15625 -20.421875 C 16.738281 -21.316406 15.09375 -21.765625 13.21875 -21.765625 C 11.550781 -21.765625 10.039062 -21.394531 8.6875 -20.65625 C 7.34375 -19.914062 6.273438 -18.816406 5.484375 -17.359375 C 4.691406 -15.910156 4.296875 -14.109375 4.296875 -11.953125 C 4.296875 -10.472656 4.507812 -9.035156 4.9375 -7.640625 C 5.375 -6.253906 6.023438 -5.007812 6.890625 -3.90625 C 7.753906 -2.800781 8.816406 -1.925781 10.078125 -1.28125 C 11.347656 -0.632812 12.804688 -0.3125 14.453125 -0.3125 C 16.160156 -0.3125 17.648438 -0.753906 18.921875 -1.640625 C 20.203125 -2.523438 21.148438 -3.820312 21.765625 -5.53125 L 22.109375 -5.5 L 21.59375 -1.390625 C 20.863281 -0.992188 19.785156 -0.609375 18.359375 -0.234375 C 16.929688 0.128906 15.332031 0.3125 13.5625 0.3125 Z M 13.5625 0.3125 "/></g></g></g><g fill="#a59c90" fill-opacity="1"><g transform="translate(23.808844, 25.55035)"><g><path d="M 1.609375 0 L 1.609375 -0.40625 C 2.097656 -0.550781 2.429688 -0.867188 2.609375 -1.359375 C 2.785156 -1.847656 2.875 -2.734375 2.875 -4.015625 L 2.875 -18.125 C 2.875 -19.425781 2.785156 -20.3125 2.609375 -20.78125 C 2.429688 -21.257812 2.097656 -21.570312 1.609375 -21.71875 L 1.609375 -22.140625 L 6.734375 -22.140625 L 6.734375 -21.71875 C 6.253906 -21.570312 5.921875 -21.257812 5.734375 -20.78125 C 5.554688 -20.3125 5.46875 -19.425781 5.46875 -18.125 L 5.46875 -1.921875 C 5.46875 -0.972656 5.941406 -0.5 6.890625 -0.5 L 10.65625 -0.5 C 12.175781 -0.5 13.34375 -0.722656 14.15625 -1.171875 C 14.96875 -1.628906 15.644531 -2.453125 16.1875 -3.640625 L 16.546875 -3.578125 L 16.3125 0 Z M 1.609375 0 "/></g></g></g><g fill="#a59c90" fill-opacity="1"><g transform="translate(40.980101, 25.55035)"><g><path d="M 1.609375 0 L 1.609375 -0.40625 C 2.097656 -0.550781 2.429688 -0.867188 2.609375 -1.359375 C 2.785156 -1.847656 2.875 -2.734375 2.875 -4.015625 L 2.875 -18.125 C 2.875 -19.425781 2.785156 -20.3125 2.609375 -20.78125 C 2.429688 -21.257812 2.097656 -21.570312 1.609375 -21.71875 L 1.609375 -22.140625 L 6.734375 -22.140625 L 6.734375 -21.71875 C 6.253906 -21.570312 5.921875 -21.257812 5.734375 -20.78125 C 5.554688 -20.3125 5.46875 -19.425781 5.46875 -18.125 L 5.46875 -4.015625 C 5.46875 -2.734375 5.554688 -1.847656 5.734375 -1.359375 C 5.921875 -0.867188 6.253906 -0.550781 6.734375 -0.40625 L 6.734375 0 Z M 1.609375 0 "/></g></g></g><g fill="#a59c90" fill-opacity="1"><g transform="translate(49.328558, 25.55035)"><g><path d="M 18.3125 0.25 L 3.421875 -19.140625 L 3.421875 -5.28125 C 3.421875 -4.082031 3.503906 -3.15625 3.671875 -2.5 C 3.835938 -1.84375 4.082031 -1.359375 4.40625 -1.046875 C 4.738281 -0.742188 5.132812 -0.53125 5.59375 -0.40625 L 5.59375 0 L 1.640625 0 L 1.640625 -0.40625 C 2.128906 -0.550781 2.460938 -0.867188 2.640625 -1.359375 C 2.816406 -1.847656 2.90625 -2.734375 2.90625 -4.015625 L 2.90625 -18.125 C 2.90625 -19.425781 2.789062 -20.3125 2.5625 -20.78125 C 2.332031 -21.257812 1.898438 -21.570312 1.265625 -21.71875 L 1.265625 -22.140625 L 4.359375 -22.140625 L 18.1875 -4.234375 L 18.1875 -16.859375 C 18.1875 -18.054688 18.097656 -18.988281 17.921875 -19.65625 C 17.753906 -20.320312 17.515625 -20.800781 17.203125 -21.09375 C 16.890625 -21.382812 16.488281 -21.59375 16 -21.71875 L 16 -22.140625 L 19.984375 -22.140625 L 19.984375 -21.71875 C 19.503906 -21.570312 19.171875 -21.257812 18.984375 -20.78125 C 18.804688 -20.3125 18.71875 -19.425781 18.71875 -18.125 L 18.71875 0.25 Z M 18.3125 0.25 "/></g></g></g><g fill="#a59c90" fill-opacity="1"><g transform="translate(70.579175, 25.55035)"><g><path d="M 1.609375 0 L 1.609375 -0.40625 C 2.097656 -0.550781 2.429688 -0.867188 2.609375 -1.359375 C 2.785156 -1.847656 2.875 -2.734375 2.875 -4.015625 L 2.875 -18.125 C 2.875 -19.425781 2.785156 -20.3125 2.609375 -20.78125 C 2.429688 -21.257812 2.097656 -21.570312 1.609375 -21.71875 L 1.609375 -22.140625 L 6.734375 -22.140625 L 6.734375 -21.71875 C 6.253906 -21.570312 5.921875 -21.257812 5.734375 -20.78125 C 5.554688 -20.3125 5.46875 -19.425781 5.46875 -18.125 L 5.46875 -4.015625 C 5.46875 -2.734375 5.554688 -1.847656 5.734375 -1.359375 C 5.921875 -0.867188 6.253906 -0.550781 6.734375 -0.40625 L 6.734375 0 Z M 1.609375 0 "/></g></g></g><g fill="#a59c90" fill-opacity="1"><g transform="translate(78.927631, 25.55035)"><g><path d="M 13.5625 0.3125 C 11.144531 0.3125 9.039062 -0.117188 7.25 -0.984375 C 5.46875 -1.847656 4.085938 -3.09375 3.109375 -4.71875 C 2.128906 -6.351562 1.640625 -8.320312 1.640625 -10.625 C 1.640625 -12.3125 1.945312 -13.863281 2.5625 -15.28125 C 3.175781 -16.707031 4.046875 -17.953125 5.171875 -19.015625 C 6.296875 -20.085938 7.632812 -20.910156 9.1875 -21.484375 C 10.738281 -22.066406 12.441406 -22.359375 14.296875 -22.359375 C 15.203125 -22.359375 16.125 -22.28125 17.0625 -22.125 C 18 -21.96875 18.859375 -21.769531 19.640625 -21.53125 C 20.421875 -21.300781 21.007812 -21.050781 21.40625 -20.78125 L 21.53125 -17.015625 L 21.21875 -16.953125 C 20.601562 -18.378906 19.582031 -19.535156 18.15625 -20.421875 C 16.738281 -21.316406 15.09375 -21.765625 13.21875 -21.765625 C 11.550781 -21.765625 10.039062 -21.394531 8.6875 -20.65625 C 7.34375 -19.914062 6.273438 -18.816406 5.484375 -17.359375 C 4.691406 -15.910156 4.296875 -14.109375 4.296875 -11.953125 C 4.296875 -10.472656 4.507812 -9.035156 4.9375 -7.640625 C 5.375 -6.253906 6.023438 -5.007812 6.890625 -3.90625 C 7.753906 -2.800781 8.816406 -1.925781 10.078125 -1.28125 C 11.347656 -0.632812 12.804688 -0.3125 14.453125 -0.3125 C 16.160156 -0.3125 17.648438 -0.753906 18.921875 -1.640625 C 20.203125 -2.523438 21.148438 -3.820312 21.765625 -5.53125 L 22.109375 -5.5 L 21.59375 -1.390625 C 20.863281 -0.992188 19.785156 -0.609375 18.359375 -0.234375 C 16.929688 0.128906 15.332031 0.3125 13.5625 0.3125 Z M 13.5625 0.3125 "/></g></g></g></g></g></svg>